<?xml version="1.0" encoding="UTF-8"?>
<svg width="165px" height="36px" viewBox="0 0 165 36" version="1.1" xmlns="http://www.w3.org/2000/svg" xmlns:xlink="http://www.w3.org/1999/xlink">
    <title>Group</title>
    <g id="Page-1" stroke="none" stroke-width="1" fill="none" fill-rule="evenodd">
        <g id="Group" transform="translate(1.000000, 0.000000)">
            <path d="M84.394691,17.340043 L86.900952,14.8418262 C87.269695,15.9951485 87.46875,17.2243284 87.46875,18.5 C87.46875,25.127417 82.096167,30.5 75.46875,30.5 C68.841333,30.5 63.46875,25.127417 63.46875,18.5 C63.46875,11.872583 68.841333,6.5 75.46875,6.5 C79.152508,6.5 82.448579,8.1598797 84.649834,10.7725078 L82.518119,12.9042229 C80.869356,10.8299421 78.324366,9.5 75.46875,9.5 C70.498187,9.5 66.46875,13.5294373 66.46875,18.5 C66.46875,23.4705627 70.498187,27.5 75.46875,27.5 C80.439313,27.5 84.46875,23.4705627 84.46875,18.5 C84.46875,18.106954 84.443555,17.7197927 84.394691,17.340043 Z" id="Combined-Shape" fill="#313131" fill-rule="nonzero"></path>
            <polygon id="Path" fill="#7EB3D5" fill-rule="nonzero" points="87.422342 9.4142136 76.589977 20.2465785 72.134886 15.7914873 70.382964 17.5434096 76.568612 23.7290577 89.173127 11.1649983"></polygon>
            <text id="Voli" font-family="Arial-BoldMT, Arial" font-size="32" font-weight="bold" fill="#313131">
                <tspan x="0" y="29">Voli</tspan>
            </text>
            <text id="prav" font-family="Arial-BoldMT, Arial" font-size="32" font-weight="bold" fill="#313131">
                <tspan x="96" y="29">prav</tspan>
            </text>
        </g>
    </g>
</svg>