<?xml version="1.0" encoding="UTF-8"?>
<svg width="36px" height="36px" viewBox="0 0 36 36" version="1.1" xmlns="http://www.w3.org/2000/svg" xmlns:xlink="http://www.w3.org/1999/xlink">
    <title>Group 2</title>
    <g id="Page-1" stroke="none" stroke-width="1" fill="none" fill-rule="evenodd">
        <g id="Group-2">
            <g id="Group" transform="translate(5.468750, 5.500000)" fill-rule="nonzero">
                <path d="M20.925941,10.840043 L23.432202,8.3418262 C23.800945,9.4951485 24,10.7243284 24,12 C24,18.627417 18.627417,24 12,24 C5.372583,24 0,18.627417 0,12 C0,5.372583 5.372583,0 12,0 C15.683758,0 18.979829,1.6598797 21.181084,4.2725078 L19.049369,6.4042229 C17.400606,4.3299421 14.855616,3 12,3 C7.029437,3 3,7.0294373 3,12 C3,16.9705627 7.029437,21 12,21 C16.970563,21 21,16.9705627 21,12 C21,11.606954 20.974805,11.2197927 20.925941,10.840043 Z" id="Combined-Shape" fill="#313131"></path>
                <polygon id="Path" fill="#7EB3D5" points="23.953592 2.9142136 13.121227 13.7465785 8.666136 9.2914873 6.914214 11.0434096 13.099862 17.2290577 25.704377 4.6649983"></polygon>
            </g>
            <rect id="Rectangle" x="0" y="0" width="36" height="36"></rect>
        </g>
    </g>
</svg>